<?xml version="1.0" encoding="utf-8"?>
<!-- Generator: Adobe Illustrator 16.0.0, SVG Export Plug-In . SVG Version: 6.00 Build 0)  -->
<!DOCTYPE svg PUBLIC "-//W3C//DTD SVG 1.1//EN" "http://www.w3.org/Graphics/SVG/1.1/DTD/svg11.dtd">
<svg version="1.1" id="Layer_1" xmlns="http://www.w3.org/2000/svg" xmlns:xlink="http://www.w3.org/1999/xlink" x="0px" y="0px"
	 width="960px" height="560px" viewBox="0 0 960 560" enable-background="new 0 0 960 560" xml:space="preserve">
<g>
	<path d="M183.539,291.335c1.767,2.918,2.552,4.702,6.282,6.323c2.749,1.135,4.908,2.107,4.908,5.026
		c0,5.188-7.656,5.188-12.172,5.188h-45.742c-4.712,0-13.546,0.811-13.546-5.188c0-4.054,6.675-3.892,6.675-7.782
		c0-2.919-1.178-4.054-2.552-6.648l-50.847-84.313c-2.355-4.054-2.749-5.188-7.46-7.458c-2.356-1.135-3.926-1.784-3.926-4.378
		c0-5.837,7.656-5.513,12.761-5.513h45.35c4.908,0,12.564,0,12.564,5.513c0,4.378-6.086,3.081-6.086,7.296
		c0,1.946,0.786,2.918,1.767,4.54L183.539,291.335z"/>
	<path d="M109.919,274.31l-3.534,4.864c-2.16,2.918-7.067,8.593-7.067,12.323c0,7.782,11.583,4.864,11.583,11.35
		c0,1.783-1.57,3.567-3.337,4.378c-1.963,0.811-6.282,0.648-8.245,0.648h-22.97c-3.73,0-9.816-0.162-9.816-4.378
		c0-3.08,2.552-4.054,5.497-5.026c6.871-2.27,10.012-5.188,13.938-10.215l17.865-23.997L109.919,274.31z"/>
	<path d="M148.594,217.399l2.945-4.702c2.16-2.918,4.516-5.513,4.516-8.917c0-3.892-2.356-5.837-6.282-7.458
		c-2.552-1.135-4.712-2.108-4.712-4.864c0-1.135,0.589-2.432,1.571-3.243c2.159-1.784,4.711-1.622,7.46-1.622h26.307
		c3.141,0,9.423,0.162,9.423,4.054c0,3.405-3.337,4.54-6.479,5.837c-6.479,3.081-10.208,6.648-14.135,11.674l-14.724,19.132
		L148.594,217.399z"/>
	<rect x="211.61" y="235.396" width="68.712" height="24.646"/>
	<path d="M299.364,186.592h28.27v9.404c-10.208,5.999-12.957,16.7-14.724,25.294c-0.589,3.567-1.571,7.783-7.068,7.783
		c-5.889,0-6.479-4.054-6.479-4.702V186.592z"/>
	<path d="M336.468,186.592h48.098v103.121c0,6-0.196,6.973,6.675,8.756c2.552,0.648,4.319,2.108,4.319,4.378
		c0,4.702-6.479,5.026-7.264,5.026h-55.559c-0.785,0-7.264-0.324-7.264-5.026c0-2.27,1.767-3.729,4.319-4.378
		c6.871-1.783,6.675-2.756,6.675-8.756V186.592z"/>
	<path d="M421.671,224.371c0,0.648-0.589,4.702-6.479,4.702c-5.497,0-6.479-4.216-7.067-7.783
		c-1.767-8.594-4.515-19.295-14.724-25.294v-9.404h28.27V224.371z"/>
	<path fill="#C60000" d="M443.067,204.752c0-5.999,0.196-6.972-6.675-8.755c-2.552-0.648-4.319-2.108-4.319-4.378
		c0-4.702,6.479-5.026,7.264-5.026h51.828v103.121c0,6-0.196,6.973,6.676,8.756c2.552,0.648,4.318,2.108,4.318,4.378
		c0,4.702-6.479,5.026-7.264,5.026h-55.559c-0.785,0-7.264-0.324-7.264-5.026c0-2.27,1.767-3.729,4.319-4.378
		c6.871-1.783,6.675-2.756,6.675-8.756V204.752z"/>
	<path fill="#C60000" d="M500,186.592h0.981c12.761,0,26.11-0.324,37.89,4.378c13.153,5.351,19.828,14.268,20.024,26.591
		c0.393,18.646-14.527,26.753-34.552,30.645v0.324c17.473,2.108,34.159,6.324,34.552,23.51v14.269c0,1.459-0.589,4.702,1.964,4.702
		c3.141,0,3.729-4.702,8.441-4.702c2.552,0,5.693,2.432,5.693,4.702c0,4.702-6.479,10.701-10.798,13.457
		c-6.675,4.54-13.742,5.837-22.184,5.837c-8.442,0-16.099-1.783-22.185-6.81c-6.871-5.837-7.853-12.971-7.853-20.592v-11.025
		c0-7.458-0.196-16.538-11.976-17.511v-9.566c10.602-0.811,11.976-6.162,11.976-14.106v-19.619c0-8.107-2.16-11.999-11.976-14.917
		V186.592z"/>
	<path d="M624.661,227.614l-18.454,55.452c-3.142,9.891-0.393,12.647,6.282,15.079c3.141,1.135,5.89,2.108,5.89,5.351
		c0,4.54-6.282,4.378-10.209,4.378h-22.576c-3.927,0-10.994-0.162-10.994-4.864c0-3.892,3.337-3.729,7.656-5.513
		c4.123-1.783,9.423-5.513,13.153-17.025l23.559-71.179h0.589L624.661,227.614z"/>
	<path d="M645.667,276.418h-28.663l2.749-9.404h23.951l-19.828-71.666l2.552-8.756h43.387l29.448,102.472
		c1.178,4.54,1.374,7.621,6.871,9.566c2.748,0.973,4.907,2.108,4.907,5.026c0,4.378-7.067,4.216-10.797,4.216H651.36
		c-3.927,0-9.62-0.324-9.62-4.54c0-2.594,1.179-3.405,3.73-4.54c5.104-2.432,5.89-3.566,4.123-9.891L645.667,276.418z"/>
	<path d="M780.536,289.713c0,6-0.196,6.973,6.675,8.756c2.552,0.648,4.319,2.108,4.319,4.378c0,4.702-6.479,5.026-7.265,5.026
		h-55.558c-0.786,0-7.265-0.324-7.265-5.026c0-2.27,1.768-3.729,4.319-4.378c6.871-1.783,6.675-2.756,6.675-8.756v-84.961
		c0-5.999,0.196-6.972-6.675-8.755c-2.552-0.648-4.319-2.108-4.319-4.378c0-4.702,6.479-5.026,7.265-5.026h55.558
		c0.786,0,7.265,0.324,7.265,5.026c0,2.27-1.768,3.729-4.319,4.378c-6.871,1.784-6.675,2.756-6.675,8.755V289.713z"/>
	<path d="M867.307,307.873h-51.829c-0.785,0-7.264-0.324-7.264-5.026c0-2.27,1.768-3.729,4.319-4.378
		c6.871-1.783,6.675-2.756,6.675-8.756v-84.961c0-5.999,0.196-6.972-6.675-8.755c-2.552-0.648-4.319-2.108-4.319-4.378
		c0-4.702,6.479-5.026,7.264-5.026h55.559c0.785,0,7.264,0.324,7.264,5.026c0,2.27-1.767,3.729-4.318,4.378
		c-6.871,1.784-6.675,2.756-6.675,8.755V307.873z"/>
	<path d="M876.141,298.469c15.902-1.783,24.933-13.133,29.056-28.212c0.981-3.567,3.337-4.54,7.46-4.54
		c4.516,0,4.908,3.081,4.908,6.161v35.995h-41.424V298.469z"/>
</g>
</svg>
